<svg width="36" height="51" viewBox="0 0 36 51" version="1.1" xmlns="http://www.w3.org/2000/svg" xmlns:xlink="http://www.w3.org/1999/xlink">
<title>Union</title>
<desc>Created using Figma</desc>
<g id="Canvas" transform="translate(613 29)">
<g id="Union">
<use xlink:href="#path0_fill" transform="translate(-613 -29)" fill="#38A0D9"/>
</g>
</g>
<defs>
<path id="path0_fill" fill-rule="evenodd" d="M 36 18.0303C 35.9999 30.9091 18 51 18 51C 18 51 0 30.9091 0 18.0303C 0 8.07244 8.0589 0 18 0C 27.9411 0 36.0001 8.07244 36 18.0303ZM 26.7429 18.0303C 26.7429 22.867 22.8286 26.7879 18 26.7879C 13.1714 26.7879 9.25714 22.867 9.25714 18.0303C 9.25714 13.1936 13.1714 9.27273 18 9.27273C 22.8286 9.27273 26.7429 13.1936 26.7429 18.0303ZM 18.0001 22.6666C 20.5563 22.6666 22.6286 20.5909 22.6286 18.0303C 22.6286 15.4697 20.5563 13.3939 18.0001 13.3939C 15.4437 13.3939 13.3715 15.4697 13.3715 18.0303C 13.3715 20.5909 15.4437 22.6666 18.0001 22.6666Z"/>
</defs>
</svg>
