<?xml version="1.0" encoding="utf-8"?>
<!-- Generator: Adobe Illustrator 14.0.0, SVG Export Plug-In . SVG Version: 6.00 Build 43363)  -->
<!DOCTYPE svg PUBLIC "-//W3C//DTD SVG 1.1//EN" "http://www.w3.org/Graphics/SVG/1.1/DTD/svg11.dtd">
<svg version="1.1" id="Layer_1" xmlns="http://www.w3.org/2000/svg" xmlns:xlink="http://www.w3.org/1999/xlink" x="0px" y="0px"
	 width="492px" height="492px" viewBox="10.108 9.65 492 492" enable-background="new 10.108 9.65 492 492" xml:space="preserve">
<g>
	<path fill="#B4968C" d="M256.108,9.65c-135.857,0-246,110.143-246,246c0,135.877,110.143,246,246,246s246-110.123,246-246
		C502.108,119.793,391.966,9.65,256.108,9.65z"/>
</g>
<path fill="#FFFFFF" d="M257.338,166.245c16.297,0,29.52-13.223,29.52-29.52c0-16.317-13.223-29.501-29.52-29.501
	c-16.298,0-29.52,13.185-29.52,29.501C227.818,153.022,241.04,166.245,257.338,166.245z"/>
<polygon fill="#FFFFFF" points="277.383,205.605 277.383,195.265 277.383,185.925 218.343,185.925 218.343,205.605 238.023,205.605 
	238.023,372.885 218.343,372.885 218.343,392.565 297.063,392.565 297.063,372.885 277.383,372.885 "/>
</svg>
