<svg width="41" height="41" viewBox="0 0 41 41" version="1.1" xmlns="http://www.w3.org/2000/svg" xmlns:xlink="http://www.w3.org/1999/xlink">
<title>Subtract</title>
<desc>Created using Figma</desc>
<g id="Canvas" transform="translate(181 24)">
<g id="Subtract">
<use xlink:href="#path0_fill" transform="translate(-181 -24)" fill="#38A0D9"/>
</g>
</g>
<defs>
<path id="path0_fill" fill-rule="evenodd" d="M 41 20.5C 41 31.8218 31.8218 41 20.5 41C 9.17816 41 0 31.8218 0 20.5C 0 9.17816 9.17816 0 20.5 0C 31.8218 0 41 9.17816 41 20.5ZM 14.947 10.3147C 15.0828 10.3762 18.2866 11.8829 18.5537 14.9541C 18.5723 15.1501 18.5051 15.3455 18.3724 15.4896C 17.3225 16.6274 16.4102 18.0265 16.4589 18.425C 16.5428 19.1335 18.7664 22.8696 22.7492 24.8171C 23.343 24.7236 24.7198 23.8165 25.7166 22.9651C 25.887 22.8197 26.1131 22.7614 26.3341 22.8184C 29.4931 23.5846 30.6327 25.7525 30.6801 25.8447C 30.7474 25.976 30.7711 26.1272 30.7474 26.2727C 30.215 29.6193 28.0369 30.6456 27.9447 30.6872C 27.8537 30.7288 27.7544 30.75 27.6551 30.75C 27.5827 30.75 27.5103 30.7404 27.4398 30.7167C 27.3108 30.6746 27.1455 30.629 26.9479 30.5745L 26.871 30.5533L 26.8698 30.553C 23.8544 29.7179 14.6876 27.1793 10.2769 13.4935C 10.2378 13.3717 10.232 13.2417 10.2628 13.1161C 10.2852 13.0264 10.8412 10.8739 14.5402 10.2602C 14.6773 10.2365 14.8195 10.2545 14.947 10.3147Z"/>
</defs>
</svg>
